<mxfile host="app.diagrams.net" agent="Mozilla/5.0 (Macintosh; Intel Mac OS X 10_15_7) AppleWebKit/537.36 (KHTML, like Gecko) Chrome/133.0.0.0 Safari/537.36" version="26.0.15">
  <diagram name="Page-1" id="C6FZyba1MF-r6DHiBU1w">
    <mxGraphModel dx="1195" dy="1763" grid="1" gridSize="10" guides="1" tooltips="1" connect="1" arrows="1" fold="1" page="1" pageScale="1" pageWidth="850" pageHeight="1100" math="0" shadow="0">
      <root>
        <mxCell id="0" />
        <mxCell id="1" parent="0" />
        <mxCell id="1QXLRgYbMNCZf00Bbz8j-2" value="" style="whiteSpace=wrap;html=1;aspect=fixed;" vertex="1" parent="1">
          <mxGeometry x="400" y="360" width="80" height="80" as="geometry" />
        </mxCell>
        <mxCell id="1QXLRgYbMNCZf00Bbz8j-3" value="" style="whiteSpace=wrap;html=1;aspect=fixed;" vertex="1" parent="1">
          <mxGeometry x="400" y="240" width="80" height="80" as="geometry" />
        </mxCell>
        <mxCell id="1QXLRgYbMNCZf00Bbz8j-4" value="" style="whiteSpace=wrap;html=1;aspect=fixed;" vertex="1" parent="1">
          <mxGeometry x="520" y="360" width="80" height="80" as="geometry" />
        </mxCell>
        <mxCell id="1QXLRgYbMNCZf00Bbz8j-5" value="" style="whiteSpace=wrap;html=1;aspect=fixed;" vertex="1" parent="1">
          <mxGeometry x="280" y="360" width="80" height="80" as="geometry" />
        </mxCell>
        <mxCell id="1QXLRgYbMNCZf00Bbz8j-6" value="" style="whiteSpace=wrap;html=1;aspect=fixed;" vertex="1" parent="1">
          <mxGeometry x="400" y="480" width="80" height="80" as="geometry" />
        </mxCell>
        <mxCell id="1QXLRgYbMNCZf00Bbz8j-7" value="" style="shape=image;verticalLabelPosition=bottom;labelBackgroundColor=default;verticalAlign=top;aspect=fixed;imageAspect=0;editableCssRules=.*;image=data:image/svg+xml,PHN2ZyB4bWxuczp4bGluaz0iaHR0cDovL3d3dy53My5vcmcvMTk5OS94bGluayIgeG1sbnM9Imh0dHA6Ly93d3cudzMub3JnLzIwMDAvc3ZnIiBzdHlsZT0iIiBhcmlhLWhpZGRlbj0idHJ1ZSIgdmlld0JveD0iNTMgLTQ0Mi4wMzQ0ODQ4NjMyODEyNSAzNjYgNDUyLjAzNDQ4NDg2MzI4MTI1IiBoZWlnaHQ9IjguMTg0NjI0Mzg5NjQ4NDM3IiB3aWR0aD0iNi42MjM4OTc2NTQ1ODQyMjEiPjxkZWZzPjxwYXRoIGQ9Ik0xMzEgMjg5UTEzMSAzMjEgMTQ3IDM1NFQyMDMgNDE1VDMwMCA0NDJRMzYyIDQ0MiAzOTAgNDE1VDQxOSAzNTVRNDE5IDMyMyA0MDIgMzA4VDM2NCAyOTJRMzUxIDI5MiAzNDAgMzAwVDMyOCAzMjZRMzI4IDM0MiAzMzcgMzU0VDM1NCAzNzJUMzY3IDM3OFEzNjggMzc4IDM2OCAzNzlRMzY4IDM4MiAzNjEgMzg4VDMzNiAzOTlUMjk3IDQwNVEyNDkgNDA1IDIyNyAzNzlUMjA0IDMyNlEyMDQgMzAxIDIyMyAyOTFUMjc4IDI3NFQzMzAgMjU5UTM5NiAyMzAgMzk2IDE2M1EzOTYgMTM1IDM4NSAxMDdUMzUyIDUxVDI4OSA3VDE5NSAtMTBRMTE4IC0xMCA4NiAxOVQ1MyA4N1E1MyAxMjYgNzQgMTQzVDExOCAxNjBRMTMzIDE2MCAxNDYgMTUxVDE2MCAxMjBRMTYwIDk0IDE0MiA3NlQxMTEgNThRMTA5IDU3IDEwOCA1N1QxMDcgNTVRMTA4IDUyIDExNSA0N1QxNDYgMzRUMjAxIDI3UTIzNyAyNyAyNjMgMzhUMzAxIDY2VDMxOCA5N1QzMjMgMTIyUTMyMyAxNTAgMzAyIDE2NFQyNTQgMTgxVDE5NSAxOTZUMTQ4IDIzMVExMzEgMjU2IDEzMSAyODlaIiBpZD0iTUpYLTYtVEVYLUktMUQ0NjAiLz48L2RlZnM+PGcgdHJhbnNmb3JtPSJzY2FsZSgxLC0xKSIgc3Ryb2tlLXdpZHRoPSIwIiBmaWxsPSIjMDAwMDAwIiBzdHJva2U9IiMwMDAwMDAiPjxnIGRhdGEtbW1sLW5vZGU9Im1hdGgiPjxnIGRhdGEtbW1sLW5vZGU9Im1pIj48dXNlIHhsaW5rOmhyZWY9IiNNSlgtNi1URVgtSS0xRDQ2MCIgZGF0YS1jPSIxRDQ2MCIvPjwvZz48L2c+PC9nPjwvc3ZnPg==;" vertex="1" parent="1">
          <mxGeometry x="435" y="394.27" width="10" height="11.45" as="geometry" />
        </mxCell>
        <mxCell id="1QXLRgYbMNCZf00Bbz8j-8" value="" style="shape=image;verticalLabelPosition=bottom;labelBackgroundColor=default;verticalAlign=top;aspect=fixed;imageAspect=0;editableCssRules=.*;image=data:image/svg+xml,PHN2ZyB4bWxuczp4bGluaz0iaHR0cDovL3d3dy53My5vcmcvMTk5OS94bGluayIgeG1sbnM9Imh0dHA6Ly93d3cudzMub3JnLzIwMDAvc3ZnIiBzdHlsZT0iIiBhcmlhLWhpZGRlbj0idHJ1ZSIgdmlld0JveD0iNTMgLTgwOC45MTk5ODI5MTAxNTYyIDYzNC4yMzQwMDg3ODkwNjI1IDgxOC45MTk5ODI5MTAxNTYyIiBoZWlnaHQ9IjE0LjgyMjU1MTY4MDkwMzczIiB3aWR0aD0iMTEuNDc5OTMyOTIyNjQ5NDQ4Ij48ZGVmcz48cGF0aCBkPSJNMTMxIDI4OVExMzEgMzIxIDE0NyAzNTRUMjAzIDQxNVQzMDAgNDQyUTM2MiA0NDIgMzkwIDQxNVQ0MTkgMzU1UTQxOSAzMjMgNDAyIDMwOFQzNjQgMjkyUTM1MSAyOTIgMzQwIDMwMFQzMjggMzI2UTMyOCAzNDIgMzM3IDM1NFQzNTQgMzcyVDM2NyAzNzhRMzY4IDM3OCAzNjggMzc5UTM2OCAzODIgMzYxIDM4OFQzMzYgMzk5VDI5NyA0MDVRMjQ5IDQwNSAyMjcgMzc5VDIwNCAzMjZRMjA0IDMwMSAyMjMgMjkxVDI3OCAyNzRUMzMwIDI1OVEzOTYgMjMwIDM5NiAxNjNRMzk2IDEzNSAzODUgMTA3VDM1MiA1MVQyODkgN1QxOTUgLTEwUTExOCAtMTAgODYgMTlUNTMgODdRNTMgMTI2IDc0IDE0M1QxMTggMTYwUTEzMyAxNjAgMTQ2IDE1MVQxNjAgMTIwUTE2MCA5NCAxNDIgNzZUMTExIDU4UTEwOSA1NyAxMDggNTdUMTA3IDU1UTEwOCA1MiAxMTUgNDdUMTQ2IDM0VDIwMSAyN1EyMzcgMjcgMjYzIDM4VDMwMSA2NlQzMTggOTdUMzIzIDEyMlEzMjMgMTUwIDMwMiAxNjRUMjU0IDE4MVQxOTUgMTk2VDE0OCAyMzFRMTMxIDI1NiAxMzEgMjg5WiIgaWQ9Ik1KWC03LVRFWC1JLTFENDYwIi8+PHBhdGggZD0iTTc5IDQzUTczIDQzIDUyIDQ5VDMwIDYxUTMwIDY4IDg1IDI5M1QxNDYgNTI4UTE2MSA1NjAgMTk4IDU2MFEyMTggNTYwIDI0MCA1NDVUMjYyIDUwMVEyNjIgNDk2IDI2MCA0ODZRMjU5IDQ3OSAxNzMgMjYzVDg0IDQ1VDc5IDQzWiIgaWQ9Ik1KWC03LVRFWC1WLTIwMzIiLz48L2RlZnM+PGcgdHJhbnNmb3JtPSJzY2FsZSgxLC0xKSIgc3Ryb2tlLXdpZHRoPSIwIiBmaWxsPSIjMDAwMDAwIiBzdHJva2U9IiMwMDAwMDAiPjxnIGRhdGEtbW1sLW5vZGU9Im1hdGgiPjxnIGRhdGEtbW1sLW5vZGU9Im1zdXAiPjxnIGRhdGEtbW1sLW5vZGU9Im1pIj48dXNlIHhsaW5rOmhyZWY9IiNNSlgtNy1URVgtSS0xRDQ2MCIgZGF0YS1jPSIxRDQ2MCIvPjwvZz48ZyB0cmFuc2Zvcm09InRyYW5zbGF0ZSg1MDIsNDEzKSBzY2FsZSgwLjcwNykiIGRhdGEtbW1sLW5vZGU9Im1vIj48dXNlIHhsaW5rOmhyZWY9IiNNSlgtNy1URVgtVi0yMDMyIiBkYXRhLWM9IjIwMzIiLz48L2c+PC9nPjwvZz48L2c+PC9zdmc+;" vertex="1" parent="1">
          <mxGeometry x="435" y="270.43" width="14" height="19.13" as="geometry" />
        </mxCell>
        <mxCell id="1QXLRgYbMNCZf00Bbz8j-10" value="" style="shape=image;verticalLabelPosition=bottom;labelBackgroundColor=default;verticalAlign=top;aspect=fixed;imageAspect=0;editableCssRules=.*;image=data:image/svg+xml,PHN2ZyB4bWxuczp4bGluaz0iaHR0cDovL3d3dy53My5vcmcvMTk5OS94bGluayIgeG1sbnM9Imh0dHA6Ly93d3cudzMub3JnLzIwMDAvc3ZnIiBzdHlsZT0iIiBhcmlhLWhpZGRlbj0idHJ1ZSIgdmlld0JveD0iMzMgLTQ0MSA0NzMgNDUxIiBoZWlnaHQ9IjguMTYiIHdpZHRoPSI4LjU2MjI4MzU1Mzg3NTIzNiI+PGRlZnM+PHBhdGggZD0iTTMzIDE1N1EzMyAyNTggMTA5IDM0OVQyODAgNDQxUTMzMSA0NDEgMzcwIDM5MlEzODYgNDIyIDQxNiA0MjJRNDI5IDQyMiA0MzkgNDE0VDQ0OSAzOTRRNDQ5IDM4MSA0MTIgMjM0VDM3NCA2OFEzNzQgNDMgMzgxIDM1VDQwMiAyNlE0MTEgMjcgNDIyIDM1UTQ0MyA1NSA0NjMgMTMxUTQ2OSAxNTEgNDczIDE1MlE0NzUgMTUzIDQ4MyAxNTNINDg3UTUwNiAxNTMgNTA2IDE0NFE1MDYgMTM4IDUwMSAxMTdUNDgxIDYzVDQ0OSAxM1E0MzYgMCA0MTcgLThRNDA5IC0xMCAzOTMgLTEwUTM1OSAtMTAgMzM2IDVUMzA2IDM2TDMwMCA1MVEyOTkgNTIgMjk2IDUwUTI5NCA0OCAyOTIgNDZRMjMzIC0xMCAxNzIgLTEwUTExNyAtMTAgNzUgMzBUMzMgMTU3Wk0zNTEgMzI4UTM1MSAzMzQgMzQ2IDM1MFQzMjMgMzg1VDI3NyA0MDVRMjQyIDQwNSAyMTAgMzc0VDE2MCAyOTNRMTMxIDIxNCAxMTkgMTI5UTExOSAxMjYgMTE5IDExOFQxMTggMTA2UTExOCA2MSAxMzYgNDRUMTc5IDI2UTIxNyAyNiAyNTQgNTlUMjk4IDExMFEzMDAgMTE0IDMyNSAyMTdUMzUxIDMyOFoiIGlkPSJNSlgtOS1URVgtSS0xRDQ0RSIvPjwvZGVmcz48ZyB0cmFuc2Zvcm09InNjYWxlKDEsLTEpIiBzdHJva2Utd2lkdGg9IjAiIGZpbGw9IiMwMDAwMDAiIHN0cm9rZT0iIzAwMDAwMCI+PGcgZGF0YS1tbWwtbm9kZT0ibWF0aCI+PGcgZGF0YS1tbWwtbm9kZT0ibWkiPjx1c2UgeGxpbms6aHJlZj0iI01KWC05LVRFWC1JLTFENDRFIiBkYXRhLWM9IjFENDRFIi8+PC9nPjwvZz48L2c+PC9zdmc+;" vertex="1" parent="1">
          <mxGeometry x="449" y="335.89" width="10" height="8.89" as="geometry" />
        </mxCell>
        <mxCell id="1QXLRgYbMNCZf00Bbz8j-12" value="" style="endArrow=openThin;html=1;rounded=0;endFill=0;strokeWidth=3;" edge="1" parent="1">
          <mxGeometry width="50" height="50" relative="1" as="geometry">
            <mxPoint x="439.71" y="360" as="sourcePoint" />
            <mxPoint x="440" y="320" as="targetPoint" />
          </mxGeometry>
        </mxCell>
        <mxCell id="1QXLRgYbMNCZf00Bbz8j-14" value="" style="endArrow=openThin;html=1;rounded=0;endFill=0;strokeWidth=2;" edge="1" parent="1">
          <mxGeometry width="50" height="50" relative="1" as="geometry">
            <mxPoint x="480" y="400.13" as="sourcePoint" />
            <mxPoint x="520" y="399.7" as="targetPoint" />
          </mxGeometry>
        </mxCell>
        <mxCell id="1QXLRgYbMNCZf00Bbz8j-15" value="" style="endArrow=none;html=1;rounded=0;endFill=0;strokeWidth=2;startArrow=openThin;startFill=0;" edge="1" parent="1">
          <mxGeometry width="50" height="50" relative="1" as="geometry">
            <mxPoint x="360" y="400.13" as="sourcePoint" />
            <mxPoint x="400" y="399.7" as="targetPoint" />
          </mxGeometry>
        </mxCell>
        <mxCell id="1QXLRgYbMNCZf00Bbz8j-17" value="" style="endArrow=none;html=1;rounded=0;endFill=0;strokeWidth=1;startArrow=openThin;startFill=0;" edge="1" parent="1">
          <mxGeometry width="50" height="50" relative="1" as="geometry">
            <mxPoint x="439.71" y="480" as="sourcePoint" />
            <mxPoint x="440" y="440" as="targetPoint" />
          </mxGeometry>
        </mxCell>
        <mxCell id="1QXLRgYbMNCZf00Bbz8j-18" value="" style="shape=image;verticalLabelPosition=bottom;labelBackgroundColor=default;verticalAlign=top;aspect=fixed;imageAspect=0;editableCssRules=.*;image=data:image/svg+xml,PHN2ZyB4bWxuczp4bGluaz0iaHR0cDovL3d3dy53My5vcmcvMTk5OS94bGluayIgeG1sbnM9Imh0dHA6Ly93d3cudzMub3JnLzIwMDAvc3ZnIiBzdHlsZT0iIiBhcmlhLWhpZGRlbj0idHJ1ZSIgdmlld0JveD0iNTMgLTgwOC45MTk5ODI5MTAxNTYyIDYzNC4yMzQwMDg3ODkwNjI1IDgxOC45MTk5ODI5MTAxNTYyIiBoZWlnaHQ9IjE0LjgyMjU1MTY4MDkwMzczIiB3aWR0aD0iMTEuNDc5OTMyOTIyNjQ5NDQ4Ij48ZGVmcz48cGF0aCBkPSJNMTMxIDI4OVExMzEgMzIxIDE0NyAzNTRUMjAzIDQxNVQzMDAgNDQyUTM2MiA0NDIgMzkwIDQxNVQ0MTkgMzU1UTQxOSAzMjMgNDAyIDMwOFQzNjQgMjkyUTM1MSAyOTIgMzQwIDMwMFQzMjggMzI2UTMyOCAzNDIgMzM3IDM1NFQzNTQgMzcyVDM2NyAzNzhRMzY4IDM3OCAzNjggMzc5UTM2OCAzODIgMzYxIDM4OFQzMzYgMzk5VDI5NyA0MDVRMjQ5IDQwNSAyMjcgMzc5VDIwNCAzMjZRMjA0IDMwMSAyMjMgMjkxVDI3OCAyNzRUMzMwIDI1OVEzOTYgMjMwIDM5NiAxNjNRMzk2IDEzNSAzODUgMTA3VDM1MiA1MVQyODkgN1QxOTUgLTEwUTExOCAtMTAgODYgMTlUNTMgODdRNTMgMTI2IDc0IDE0M1QxMTggMTYwUTEzMyAxNjAgMTQ2IDE1MVQxNjAgMTIwUTE2MCA5NCAxNDIgNzZUMTExIDU4UTEwOSA1NyAxMDggNTdUMTA3IDU1UTEwOCA1MiAxMTUgNDdUMTQ2IDM0VDIwMSAyN1EyMzcgMjcgMjYzIDM4VDMwMSA2NlQzMTggOTdUMzIzIDEyMlEzMjMgMTUwIDMwMiAxNjRUMjU0IDE4MVQxOTUgMTk2VDE0OCAyMzFRMTMxIDI1NiAxMzEgMjg5WiIgaWQ9Ik1KWC03LVRFWC1JLTFENDYwIi8+PHBhdGggZD0iTTc5IDQzUTczIDQzIDUyIDQ5VDMwIDYxUTMwIDY4IDg1IDI5M1QxNDYgNTI4UTE2MSA1NjAgMTk4IDU2MFEyMTggNTYwIDI0MCA1NDVUMjYyIDUwMVEyNjIgNDk2IDI2MCA0ODZRMjU5IDQ3OSAxNzMgMjYzVDg0IDQ1VDc5IDQzWiIgaWQ9Ik1KWC03LVRFWC1WLTIwMzIiLz48L2RlZnM+PGcgdHJhbnNmb3JtPSJzY2FsZSgxLC0xKSIgc3Ryb2tlLXdpZHRoPSIwIiBmaWxsPSIjMDAwMDAwIiBzdHJva2U9IiMwMDAwMDAiPjxnIGRhdGEtbW1sLW5vZGU9Im1hdGgiPjxnIGRhdGEtbW1sLW5vZGU9Im1zdXAiPjxnIGRhdGEtbW1sLW5vZGU9Im1pIj48dXNlIHhsaW5rOmhyZWY9IiNNSlgtNy1URVgtSS0xRDQ2MCIgZGF0YS1jPSIxRDQ2MCIvPjwvZz48ZyB0cmFuc2Zvcm09InRyYW5zbGF0ZSg1MDIsNDEzKSBzY2FsZSgwLjcwNykiIGRhdGEtbW1sLW5vZGU9Im1vIj48dXNlIHhsaW5rOmhyZWY9IiNNSlgtNy1URVgtVi0yMDMyIiBkYXRhLWM9IjIwMzIiLz48L2c+PC9nPjwvZz48L2c+PC9zdmc+;" vertex="1" parent="1">
          <mxGeometry x="313" y="390.43" width="14" height="19.13" as="geometry" />
        </mxCell>
        <mxCell id="1QXLRgYbMNCZf00Bbz8j-19" value="" style="shape=image;verticalLabelPosition=bottom;labelBackgroundColor=default;verticalAlign=top;aspect=fixed;imageAspect=0;editableCssRules=.*;image=data:image/svg+xml,PHN2ZyB4bWxuczp4bGluaz0iaHR0cDovL3d3dy53My5vcmcvMTk5OS94bGluayIgeG1sbnM9Imh0dHA6Ly93d3cudzMub3JnLzIwMDAvc3ZnIiBzdHlsZT0iIiBhcmlhLWhpZGRlbj0idHJ1ZSIgdmlld0JveD0iNTMgLTgwOC45MTk5ODI5MTAxNTYyIDYzNC4yMzQwMDg3ODkwNjI1IDgxOC45MTk5ODI5MTAxNTYyIiBoZWlnaHQ9IjE0LjgyMjU1MTY4MDkwMzczIiB3aWR0aD0iMTEuNDc5OTMyOTIyNjQ5NDQ4Ij48ZGVmcz48cGF0aCBkPSJNMTMxIDI4OVExMzEgMzIxIDE0NyAzNTRUMjAzIDQxNVQzMDAgNDQyUTM2MiA0NDIgMzkwIDQxNVQ0MTkgMzU1UTQxOSAzMjMgNDAyIDMwOFQzNjQgMjkyUTM1MSAyOTIgMzQwIDMwMFQzMjggMzI2UTMyOCAzNDIgMzM3IDM1NFQzNTQgMzcyVDM2NyAzNzhRMzY4IDM3OCAzNjggMzc5UTM2OCAzODIgMzYxIDM4OFQzMzYgMzk5VDI5NyA0MDVRMjQ5IDQwNSAyMjcgMzc5VDIwNCAzMjZRMjA0IDMwMSAyMjMgMjkxVDI3OCAyNzRUMzMwIDI1OVEzOTYgMjMwIDM5NiAxNjNRMzk2IDEzNSAzODUgMTA3VDM1MiA1MVQyODkgN1QxOTUgLTEwUTExOCAtMTAgODYgMTlUNTMgODdRNTMgMTI2IDc0IDE0M1QxMTggMTYwUTEzMyAxNjAgMTQ2IDE1MVQxNjAgMTIwUTE2MCA5NCAxNDIgNzZUMTExIDU4UTEwOSA1NyAxMDggNTdUMTA3IDU1UTEwOCA1MiAxMTUgNDdUMTQ2IDM0VDIwMSAyN1EyMzcgMjcgMjYzIDM4VDMwMSA2NlQzMTggOTdUMzIzIDEyMlEzMjMgMTUwIDMwMiAxNjRUMjU0IDE4MVQxOTUgMTk2VDE0OCAyMzFRMTMxIDI1NiAxMzEgMjg5WiIgaWQ9Ik1KWC03LVRFWC1JLTFENDYwIi8+PHBhdGggZD0iTTc5IDQzUTczIDQzIDUyIDQ5VDMwIDYxUTMwIDY4IDg1IDI5M1QxNDYgNTI4UTE2MSA1NjAgMTk4IDU2MFEyMTggNTYwIDI0MCA1NDVUMjYyIDUwMVEyNjIgNDk2IDI2MCA0ODZRMjU5IDQ3OSAxNzMgMjYzVDg0IDQ1VDc5IDQzWiIgaWQ9Ik1KWC03LVRFWC1WLTIwMzIiLz48L2RlZnM+PGcgdHJhbnNmb3JtPSJzY2FsZSgxLC0xKSIgc3Ryb2tlLXdpZHRoPSIwIiBmaWxsPSIjMDAwMDAwIiBzdHJva2U9IiMwMDAwMDAiPjxnIGRhdGEtbW1sLW5vZGU9Im1hdGgiPjxnIGRhdGEtbW1sLW5vZGU9Im1zdXAiPjxnIGRhdGEtbW1sLW5vZGU9Im1pIj48dXNlIHhsaW5rOmhyZWY9IiNNSlgtNy1URVgtSS0xRDQ2MCIgZGF0YS1jPSIxRDQ2MCIvPjwvZz48ZyB0cmFuc2Zvcm09InRyYW5zbGF0ZSg1MDIsNDEzKSBzY2FsZSgwLjcwNykiIGRhdGEtbW1sLW5vZGU9Im1vIj48dXNlIHhsaW5rOmhyZWY9IiNNSlgtNy1URVgtVi0yMDMyIiBkYXRhLWM9IjIwMzIiLz48L2c+PC9nPjwvZz48L2c+PC9zdmc+;" vertex="1" parent="1">
          <mxGeometry x="553" y="390.43" width="14" height="19.13" as="geometry" />
        </mxCell>
        <mxCell id="1QXLRgYbMNCZf00Bbz8j-20" value="" style="shape=image;verticalLabelPosition=bottom;labelBackgroundColor=default;verticalAlign=top;aspect=fixed;imageAspect=0;editableCssRules=.*;image=data:image/svg+xml,PHN2ZyB4bWxuczp4bGluaz0iaHR0cDovL3d3dy53My5vcmcvMTk5OS94bGluayIgeG1sbnM9Imh0dHA6Ly93d3cudzMub3JnLzIwMDAvc3ZnIiBzdHlsZT0iIiBhcmlhLWhpZGRlbj0idHJ1ZSIgdmlld0JveD0iNTMgLTgwOC45MTk5ODI5MTAxNTYyIDYzNC4yMzQwMDg3ODkwNjI1IDgxOC45MTk5ODI5MTAxNTYyIiBoZWlnaHQ9IjE0LjgyMjU1MTY4MDkwMzczIiB3aWR0aD0iMTEuNDc5OTMyOTIyNjQ5NDQ4Ij48ZGVmcz48cGF0aCBkPSJNMTMxIDI4OVExMzEgMzIxIDE0NyAzNTRUMjAzIDQxNVQzMDAgNDQyUTM2MiA0NDIgMzkwIDQxNVQ0MTkgMzU1UTQxOSAzMjMgNDAyIDMwOFQzNjQgMjkyUTM1MSAyOTIgMzQwIDMwMFQzMjggMzI2UTMyOCAzNDIgMzM3IDM1NFQzNTQgMzcyVDM2NyAzNzhRMzY4IDM3OCAzNjggMzc5UTM2OCAzODIgMzYxIDM4OFQzMzYgMzk5VDI5NyA0MDVRMjQ5IDQwNSAyMjcgMzc5VDIwNCAzMjZRMjA0IDMwMSAyMjMgMjkxVDI3OCAyNzRUMzMwIDI1OVEzOTYgMjMwIDM5NiAxNjNRMzk2IDEzNSAzODUgMTA3VDM1MiA1MVQyODkgN1QxOTUgLTEwUTExOCAtMTAgODYgMTlUNTMgODdRNTMgMTI2IDc0IDE0M1QxMTggMTYwUTEzMyAxNjAgMTQ2IDE1MVQxNjAgMTIwUTE2MCA5NCAxNDIgNzZUMTExIDU4UTEwOSA1NyAxMDggNTdUMTA3IDU1UTEwOCA1MiAxMTUgNDdUMTQ2IDM0VDIwMSAyN1EyMzcgMjcgMjYzIDM4VDMwMSA2NlQzMTggOTdUMzIzIDEyMlEzMjMgMTUwIDMwMiAxNjRUMjU0IDE4MVQxOTUgMTk2VDE0OCAyMzFRMTMxIDI1NiAxMzEgMjg5WiIgaWQ9Ik1KWC03LVRFWC1JLTFENDYwIi8+PHBhdGggZD0iTTc5IDQzUTczIDQzIDUyIDQ5VDMwIDYxUTMwIDY4IDg1IDI5M1QxNDYgNTI4UTE2MSA1NjAgMTk4IDU2MFEyMTggNTYwIDI0MCA1NDVUMjYyIDUwMVEyNjIgNDk2IDI2MCA0ODZRMjU5IDQ3OSAxNzMgMjYzVDg0IDQ1VDc5IDQzWiIgaWQ9Ik1KWC03LVRFWC1WLTIwMzIiLz48L2RlZnM+PGcgdHJhbnNmb3JtPSJzY2FsZSgxLC0xKSIgc3Ryb2tlLXdpZHRoPSIwIiBmaWxsPSIjMDAwMDAwIiBzdHJva2U9IiMwMDAwMDAiPjxnIGRhdGEtbW1sLW5vZGU9Im1hdGgiPjxnIGRhdGEtbW1sLW5vZGU9Im1zdXAiPjxnIGRhdGEtbW1sLW5vZGU9Im1pIj48dXNlIHhsaW5rOmhyZWY9IiNNSlgtNy1URVgtSS0xRDQ2MCIgZGF0YS1jPSIxRDQ2MCIvPjwvZz48ZyB0cmFuc2Zvcm09InRyYW5zbGF0ZSg1MDIsNDEzKSBzY2FsZSgwLjcwNykiIGRhdGEtbW1sLW5vZGU9Im1vIj48dXNlIHhsaW5rOmhyZWY9IiNNSlgtNy1URVgtVi0yMDMyIiBkYXRhLWM9IjIwMzIiLz48L2c+PC9nPjwvZz48L2c+PC9zdmc+;" vertex="1" parent="1">
          <mxGeometry x="433" y="510.43" width="14" height="19.13" as="geometry" />
        </mxCell>
        <mxCell id="1QXLRgYbMNCZf00Bbz8j-21" value="90%" style="text;html=1;align=center;verticalAlign=middle;whiteSpace=wrap;rounded=0;" vertex="1" parent="1">
          <mxGeometry x="400" y="330.34" width="35" height="20" as="geometry" />
        </mxCell>
        <mxCell id="1QXLRgYbMNCZf00Bbz8j-22" value="2%" style="text;html=1;align=center;verticalAlign=middle;whiteSpace=wrap;rounded=0;" vertex="1" parent="1">
          <mxGeometry x="405" y="450" width="25" height="20" as="geometry" />
        </mxCell>
        <mxCell id="1QXLRgYbMNCZf00Bbz8j-23" value="4%" style="text;html=1;align=center;verticalAlign=middle;whiteSpace=wrap;rounded=0;" vertex="1" parent="1">
          <mxGeometry x="370" y="374.27" width="20" height="20" as="geometry" />
        </mxCell>
        <mxCell id="1QXLRgYbMNCZf00Bbz8j-24" value="4%" style="text;html=1;align=center;verticalAlign=middle;whiteSpace=wrap;rounded=0;" vertex="1" parent="1">
          <mxGeometry x="490" y="374.27" width="20" height="20" as="geometry" />
        </mxCell>
        <mxCell id="1QXLRgYbMNCZf00Bbz8j-25" value="" style="whiteSpace=wrap;html=1;aspect=fixed;" vertex="1" parent="1">
          <mxGeometry x="740" y="710" width="80" height="80" as="geometry" />
        </mxCell>
        <mxCell id="1QXLRgYbMNCZf00Bbz8j-26" value="" style="whiteSpace=wrap;html=1;aspect=fixed;" vertex="1" parent="1">
          <mxGeometry x="740" y="590" width="80" height="80" as="geometry" />
        </mxCell>
        <mxCell id="1QXLRgYbMNCZf00Bbz8j-27" value="" style="whiteSpace=wrap;html=1;aspect=fixed;" vertex="1" parent="1">
          <mxGeometry x="860" y="710" width="80" height="80" as="geometry" />
        </mxCell>
        <mxCell id="1QXLRgYbMNCZf00Bbz8j-28" value="" style="whiteSpace=wrap;html=1;aspect=fixed;" vertex="1" parent="1">
          <mxGeometry x="620" y="710" width="80" height="80" as="geometry" />
        </mxCell>
        <mxCell id="1QXLRgYbMNCZf00Bbz8j-29" value="" style="whiteSpace=wrap;html=1;aspect=fixed;" vertex="1" parent="1">
          <mxGeometry x="740" y="830" width="80" height="80" as="geometry" />
        </mxCell>
        <mxCell id="1QXLRgYbMNCZf00Bbz8j-30" value="" style="shape=image;verticalLabelPosition=bottom;labelBackgroundColor=default;verticalAlign=top;aspect=fixed;imageAspect=0;editableCssRules=.*;image=data:image/svg+xml,PHN2ZyB4bWxuczp4bGluaz0iaHR0cDovL3d3dy53My5vcmcvMTk5OS94bGluayIgeG1sbnM9Imh0dHA6Ly93d3cudzMub3JnLzIwMDAvc3ZnIiBzdHlsZT0iIiBhcmlhLWhpZGRlbj0idHJ1ZSIgdmlld0JveD0iNTMgLTQ0Mi4wMzQ0ODQ4NjMyODEyNSAzNjYgNDUyLjAzNDQ4NDg2MzI4MTI1IiBoZWlnaHQ9IjguMTg0NjI0Mzg5NjQ4NDM3IiB3aWR0aD0iNi42MjM4OTc2NTQ1ODQyMjEiPjxkZWZzPjxwYXRoIGQ9Ik0xMzEgMjg5UTEzMSAzMjEgMTQ3IDM1NFQyMDMgNDE1VDMwMCA0NDJRMzYyIDQ0MiAzOTAgNDE1VDQxOSAzNTVRNDE5IDMyMyA0MDIgMzA4VDM2NCAyOTJRMzUxIDI5MiAzNDAgMzAwVDMyOCAzMjZRMzI4IDM0MiAzMzcgMzU0VDM1NCAzNzJUMzY3IDM3OFEzNjggMzc4IDM2OCAzNzlRMzY4IDM4MiAzNjEgMzg4VDMzNiAzOTlUMjk3IDQwNVEyNDkgNDA1IDIyNyAzNzlUMjA0IDMyNlEyMDQgMzAxIDIyMyAyOTFUMjc4IDI3NFQzMzAgMjU5UTM5NiAyMzAgMzk2IDE2M1EzOTYgMTM1IDM4NSAxMDdUMzUyIDUxVDI4OSA3VDE5NSAtMTBRMTE4IC0xMCA4NiAxOVQ1MyA4N1E1MyAxMjYgNzQgMTQzVDExOCAxNjBRMTMzIDE2MCAxNDYgMTUxVDE2MCAxMjBRMTYwIDk0IDE0MiA3NlQxMTEgNThRMTA5IDU3IDEwOCA1N1QxMDcgNTVRMTA4IDUyIDExNSA0N1QxNDYgMzRUMjAxIDI3UTIzNyAyNyAyNjMgMzhUMzAxIDY2VDMxOCA5N1QzMjMgMTIyUTMyMyAxNTAgMzAyIDE2NFQyNTQgMTgxVDE5NSAxOTZUMTQ4IDIzMVExMzEgMjU2IDEzMSAyODlaIiBpZD0iTUpYLTYtVEVYLUktMUQ0NjAiLz48L2RlZnM+PGcgdHJhbnNmb3JtPSJzY2FsZSgxLC0xKSIgc3Ryb2tlLXdpZHRoPSIwIiBmaWxsPSIjMDAwMDAwIiBzdHJva2U9IiMwMDAwMDAiPjxnIGRhdGEtbW1sLW5vZGU9Im1hdGgiPjxnIGRhdGEtbW1sLW5vZGU9Im1pIj48dXNlIHhsaW5rOmhyZWY9IiNNSlgtNi1URVgtSS0xRDQ2MCIgZGF0YS1jPSIxRDQ2MCIvPjwvZz48L2c+PC9nPjwvc3ZnPg==;" vertex="1" parent="1">
          <mxGeometry x="775" y="744.27" width="10" height="11.45" as="geometry" />
        </mxCell>
        <mxCell id="1QXLRgYbMNCZf00Bbz8j-31" value="" style="shape=image;verticalLabelPosition=bottom;labelBackgroundColor=default;verticalAlign=top;aspect=fixed;imageAspect=0;editableCssRules=.*;image=data:image/svg+xml,PHN2ZyB4bWxuczp4bGluaz0iaHR0cDovL3d3dy53My5vcmcvMTk5OS94bGluayIgeG1sbnM9Imh0dHA6Ly93d3cudzMub3JnLzIwMDAvc3ZnIiBzdHlsZT0iIiBhcmlhLWhpZGRlbj0idHJ1ZSIgdmlld0JveD0iNTMgLTgwOC45MTk5ODI5MTAxNTYyIDYzNC4yMzQwMDg3ODkwNjI1IDgxOC45MTk5ODI5MTAxNTYyIiBoZWlnaHQ9IjE0LjgyMjU1MTY4MDkwMzczIiB3aWR0aD0iMTEuNDc5OTMyOTIyNjQ5NDQ4Ij48ZGVmcz48cGF0aCBkPSJNMTMxIDI4OVExMzEgMzIxIDE0NyAzNTRUMjAzIDQxNVQzMDAgNDQyUTM2MiA0NDIgMzkwIDQxNVQ0MTkgMzU1UTQxOSAzMjMgNDAyIDMwOFQzNjQgMjkyUTM1MSAyOTIgMzQwIDMwMFQzMjggMzI2UTMyOCAzNDIgMzM3IDM1NFQzNTQgMzcyVDM2NyAzNzhRMzY4IDM3OCAzNjggMzc5UTM2OCAzODIgMzYxIDM4OFQzMzYgMzk5VDI5NyA0MDVRMjQ5IDQwNSAyMjcgMzc5VDIwNCAzMjZRMjA0IDMwMSAyMjMgMjkxVDI3OCAyNzRUMzMwIDI1OVEzOTYgMjMwIDM5NiAxNjNRMzk2IDEzNSAzODUgMTA3VDM1MiA1MVQyODkgN1QxOTUgLTEwUTExOCAtMTAgODYgMTlUNTMgODdRNTMgMTI2IDc0IDE0M1QxMTggMTYwUTEzMyAxNjAgMTQ2IDE1MVQxNjAgMTIwUTE2MCA5NCAxNDIgNzZUMTExIDU4UTEwOSA1NyAxMDggNTdUMTA3IDU1UTEwOCA1MiAxMTUgNDdUMTQ2IDM0VDIwMSAyN1EyMzcgMjcgMjYzIDM4VDMwMSA2NlQzMTggOTdUMzIzIDEyMlEzMjMgMTUwIDMwMiAxNjRUMjU0IDE4MVQxOTUgMTk2VDE0OCAyMzFRMTMxIDI1NiAxMzEgMjg5WiIgaWQ9Ik1KWC03LVRFWC1JLTFENDYwIi8+PHBhdGggZD0iTTc5IDQzUTczIDQzIDUyIDQ5VDMwIDYxUTMwIDY4IDg1IDI5M1QxNDYgNTI4UTE2MSA1NjAgMTk4IDU2MFEyMTggNTYwIDI0MCA1NDVUMjYyIDUwMVEyNjIgNDk2IDI2MCA0ODZRMjU5IDQ3OSAxNzMgMjYzVDg0IDQ1VDc5IDQzWiIgaWQ9Ik1KWC03LVRFWC1WLTIwMzIiLz48L2RlZnM+PGcgdHJhbnNmb3JtPSJzY2FsZSgxLC0xKSIgc3Ryb2tlLXdpZHRoPSIwIiBmaWxsPSIjMDAwMDAwIiBzdHJva2U9IiMwMDAwMDAiPjxnIGRhdGEtbW1sLW5vZGU9Im1hdGgiPjxnIGRhdGEtbW1sLW5vZGU9Im1zdXAiPjxnIGRhdGEtbW1sLW5vZGU9Im1pIj48dXNlIHhsaW5rOmhyZWY9IiNNSlgtNy1URVgtSS0xRDQ2MCIgZGF0YS1jPSIxRDQ2MCIvPjwvZz48ZyB0cmFuc2Zvcm09InRyYW5zbGF0ZSg1MDIsNDEzKSBzY2FsZSgwLjcwNykiIGRhdGEtbW1sLW5vZGU9Im1vIj48dXNlIHhsaW5rOmhyZWY9IiNNSlgtNy1URVgtVi0yMDMyIiBkYXRhLWM9IjIwMzIiLz48L2c+PC9nPjwvZz48L2c+PC9zdmc+;" vertex="1" parent="1">
          <mxGeometry x="775" y="620.4300000000001" width="14" height="19.13" as="geometry" />
        </mxCell>
        <mxCell id="1QXLRgYbMNCZf00Bbz8j-32" value="" style="shape=image;verticalLabelPosition=bottom;labelBackgroundColor=default;verticalAlign=top;aspect=fixed;imageAspect=0;editableCssRules=.*;image=data:image/svg+xml,PHN2ZyB4bWxuczp4bGluaz0iaHR0cDovL3d3dy53My5vcmcvMTk5OS94bGluayIgeG1sbnM9Imh0dHA6Ly93d3cudzMub3JnLzIwMDAvc3ZnIiBzdHlsZT0iIiBhcmlhLWhpZGRlbj0idHJ1ZSIgdmlld0JveD0iMzMgLTQ0MSA0NzMgNDUxIiBoZWlnaHQ9IjguMTYiIHdpZHRoPSI4LjU2MjI4MzU1Mzg3NTIzNiI+PGRlZnM+PHBhdGggZD0iTTMzIDE1N1EzMyAyNTggMTA5IDM0OVQyODAgNDQxUTMzMSA0NDEgMzcwIDM5MlEzODYgNDIyIDQxNiA0MjJRNDI5IDQyMiA0MzkgNDE0VDQ0OSAzOTRRNDQ5IDM4MSA0MTIgMjM0VDM3NCA2OFEzNzQgNDMgMzgxIDM1VDQwMiAyNlE0MTEgMjcgNDIyIDM1UTQ0MyA1NSA0NjMgMTMxUTQ2OSAxNTEgNDczIDE1MlE0NzUgMTUzIDQ4MyAxNTNINDg3UTUwNiAxNTMgNTA2IDE0NFE1MDYgMTM4IDUwMSAxMTdUNDgxIDYzVDQ0OSAxM1E0MzYgMCA0MTcgLThRNDA5IC0xMCAzOTMgLTEwUTM1OSAtMTAgMzM2IDVUMzA2IDM2TDMwMCA1MVEyOTkgNTIgMjk2IDUwUTI5NCA0OCAyOTIgNDZRMjMzIC0xMCAxNzIgLTEwUTExNyAtMTAgNzUgMzBUMzMgMTU3Wk0zNTEgMzI4UTM1MSAzMzQgMzQ2IDM1MFQzMjMgMzg1VDI3NyA0MDVRMjQyIDQwNSAyMTAgMzc0VDE2MCAyOTNRMTMxIDIxNCAxMTkgMTI5UTExOSAxMjYgMTE5IDExOFQxMTggMTA2UTExOCA2MSAxMzYgNDRUMTc5IDI2UTIxNyAyNiAyNTQgNTlUMjk4IDExMFEzMDAgMTE0IDMyNSAyMTdUMzUxIDMyOFoiIGlkPSJNSlgtOS1URVgtSS0xRDQ0RSIvPjwvZGVmcz48ZyB0cmFuc2Zvcm09InNjYWxlKDEsLTEpIiBzdHJva2Utd2lkdGg9IjAiIGZpbGw9IiMwMDAwMDAiIHN0cm9rZT0iIzAwMDAwMCI+PGcgZGF0YS1tbWwtbm9kZT0ibWF0aCI+PGcgZGF0YS1tbWwtbm9kZT0ibWkiPjx1c2UgeGxpbms6aHJlZj0iI01KWC05LVRFWC1JLTFENDRFIiBkYXRhLWM9IjFENDRFIi8+PC9nPjwvZz48L2c+PC9zdmc+;" vertex="1" parent="1">
          <mxGeometry x="789" y="685.89" width="10" height="8.89" as="geometry" />
        </mxCell>
        <mxCell id="1QXLRgYbMNCZf00Bbz8j-33" value="" style="endArrow=openThin;html=1;rounded=0;endFill=0;strokeWidth=3;" edge="1" parent="1">
          <mxGeometry width="50" height="50" relative="1" as="geometry">
            <mxPoint x="779.71" y="710" as="sourcePoint" />
            <mxPoint x="780" y="670" as="targetPoint" />
          </mxGeometry>
        </mxCell>
        <mxCell id="1QXLRgYbMNCZf00Bbz8j-34" value="" style="endArrow=openThin;html=1;rounded=0;endFill=0;strokeWidth=2;" edge="1" parent="1">
          <mxGeometry width="50" height="50" relative="1" as="geometry">
            <mxPoint x="820" y="750.13" as="sourcePoint" />
            <mxPoint x="860" y="749.7" as="targetPoint" />
          </mxGeometry>
        </mxCell>
        <mxCell id="1QXLRgYbMNCZf00Bbz8j-35" value="" style="endArrow=none;html=1;rounded=0;endFill=0;strokeWidth=2;startArrow=openThin;startFill=0;" edge="1" parent="1">
          <mxGeometry width="50" height="50" relative="1" as="geometry">
            <mxPoint x="700" y="750.13" as="sourcePoint" />
            <mxPoint x="740" y="749.7" as="targetPoint" />
          </mxGeometry>
        </mxCell>
        <mxCell id="1QXLRgYbMNCZf00Bbz8j-36" value="" style="endArrow=none;html=1;rounded=0;endFill=0;strokeWidth=1.5;startArrow=openThin;startFill=0;" edge="1" parent="1">
          <mxGeometry width="50" height="50" relative="1" as="geometry">
            <mxPoint x="779.71" y="830" as="sourcePoint" />
            <mxPoint x="780" y="790" as="targetPoint" />
          </mxGeometry>
        </mxCell>
        <mxCell id="1QXLRgYbMNCZf00Bbz8j-37" value="" style="shape=image;verticalLabelPosition=bottom;labelBackgroundColor=default;verticalAlign=top;aspect=fixed;imageAspect=0;editableCssRules=.*;image=data:image/svg+xml,PHN2ZyB4bWxuczp4bGluaz0iaHR0cDovL3d3dy53My5vcmcvMTk5OS94bGluayIgeG1sbnM9Imh0dHA6Ly93d3cudzMub3JnLzIwMDAvc3ZnIiBzdHlsZT0iIiBhcmlhLWhpZGRlbj0idHJ1ZSIgdmlld0JveD0iNTMgLTgwOC45MTk5ODI5MTAxNTYyIDYzNC4yMzQwMDg3ODkwNjI1IDgxOC45MTk5ODI5MTAxNTYyIiBoZWlnaHQ9IjE0LjgyMjU1MTY4MDkwMzczIiB3aWR0aD0iMTEuNDc5OTMyOTIyNjQ5NDQ4Ij48ZGVmcz48cGF0aCBkPSJNMTMxIDI4OVExMzEgMzIxIDE0NyAzNTRUMjAzIDQxNVQzMDAgNDQyUTM2MiA0NDIgMzkwIDQxNVQ0MTkgMzU1UTQxOSAzMjMgNDAyIDMwOFQzNjQgMjkyUTM1MSAyOTIgMzQwIDMwMFQzMjggMzI2UTMyOCAzNDIgMzM3IDM1NFQzNTQgMzcyVDM2NyAzNzhRMzY4IDM3OCAzNjggMzc5UTM2OCAzODIgMzYxIDM4OFQzMzYgMzk5VDI5NyA0MDVRMjQ5IDQwNSAyMjcgMzc5VDIwNCAzMjZRMjA0IDMwMSAyMjMgMjkxVDI3OCAyNzRUMzMwIDI1OVEzOTYgMjMwIDM5NiAxNjNRMzk2IDEzNSAzODUgMTA3VDM1MiA1MVQyODkgN1QxOTUgLTEwUTExOCAtMTAgODYgMTlUNTMgODdRNTMgMTI2IDc0IDE0M1QxMTggMTYwUTEzMyAxNjAgMTQ2IDE1MVQxNjAgMTIwUTE2MCA5NCAxNDIgNzZUMTExIDU4UTEwOSA1NyAxMDggNTdUMTA3IDU1UTEwOCA1MiAxMTUgNDdUMTQ2IDM0VDIwMSAyN1EyMzcgMjcgMjYzIDM4VDMwMSA2NlQzMTggOTdUMzIzIDEyMlEzMjMgMTUwIDMwMiAxNjRUMjU0IDE4MVQxOTUgMTk2VDE0OCAyMzFRMTMxIDI1NiAxMzEgMjg5WiIgaWQ9Ik1KWC03LVRFWC1JLTFENDYwIi8+PHBhdGggZD0iTTc5IDQzUTczIDQzIDUyIDQ5VDMwIDYxUTMwIDY4IDg1IDI5M1QxNDYgNTI4UTE2MSA1NjAgMTk4IDU2MFEyMTggNTYwIDI0MCA1NDVUMjYyIDUwMVEyNjIgNDk2IDI2MCA0ODZRMjU5IDQ3OSAxNzMgMjYzVDg0IDQ1VDc5IDQzWiIgaWQ9Ik1KWC03LVRFWC1WLTIwMzIiLz48L2RlZnM+PGcgdHJhbnNmb3JtPSJzY2FsZSgxLC0xKSIgc3Ryb2tlLXdpZHRoPSIwIiBmaWxsPSIjMDAwMDAwIiBzdHJva2U9IiMwMDAwMDAiPjxnIGRhdGEtbW1sLW5vZGU9Im1hdGgiPjxnIGRhdGEtbW1sLW5vZGU9Im1zdXAiPjxnIGRhdGEtbW1sLW5vZGU9Im1pIj48dXNlIHhsaW5rOmhyZWY9IiNNSlgtNy1URVgtSS0xRDQ2MCIgZGF0YS1jPSIxRDQ2MCIvPjwvZz48ZyB0cmFuc2Zvcm09InRyYW5zbGF0ZSg1MDIsNDEzKSBzY2FsZSgwLjcwNykiIGRhdGEtbW1sLW5vZGU9Im1vIj48dXNlIHhsaW5rOmhyZWY9IiNNSlgtNy1URVgtVi0yMDMyIiBkYXRhLWM9IjIwMzIiLz48L2c+PC9nPjwvZz48L2c+PC9zdmc+;" vertex="1" parent="1">
          <mxGeometry x="653" y="740.4300000000001" width="14" height="19.13" as="geometry" />
        </mxCell>
        <mxCell id="1QXLRgYbMNCZf00Bbz8j-38" value="" style="shape=image;verticalLabelPosition=bottom;labelBackgroundColor=default;verticalAlign=top;aspect=fixed;imageAspect=0;editableCssRules=.*;image=data:image/svg+xml,PHN2ZyB4bWxuczp4bGluaz0iaHR0cDovL3d3dy53My5vcmcvMTk5OS94bGluayIgeG1sbnM9Imh0dHA6Ly93d3cudzMub3JnLzIwMDAvc3ZnIiBzdHlsZT0iIiBhcmlhLWhpZGRlbj0idHJ1ZSIgdmlld0JveD0iNTMgLTgwOC45MTk5ODI5MTAxNTYyIDYzNC4yMzQwMDg3ODkwNjI1IDgxOC45MTk5ODI5MTAxNTYyIiBoZWlnaHQ9IjE0LjgyMjU1MTY4MDkwMzczIiB3aWR0aD0iMTEuNDc5OTMyOTIyNjQ5NDQ4Ij48ZGVmcz48cGF0aCBkPSJNMTMxIDI4OVExMzEgMzIxIDE0NyAzNTRUMjAzIDQxNVQzMDAgNDQyUTM2MiA0NDIgMzkwIDQxNVQ0MTkgMzU1UTQxOSAzMjMgNDAyIDMwOFQzNjQgMjkyUTM1MSAyOTIgMzQwIDMwMFQzMjggMzI2UTMyOCAzNDIgMzM3IDM1NFQzNTQgMzcyVDM2NyAzNzhRMzY4IDM3OCAzNjggMzc5UTM2OCAzODIgMzYxIDM4OFQzMzYgMzk5VDI5NyA0MDVRMjQ5IDQwNSAyMjcgMzc5VDIwNCAzMjZRMjA0IDMwMSAyMjMgMjkxVDI3OCAyNzRUMzMwIDI1OVEzOTYgMjMwIDM5NiAxNjNRMzk2IDEzNSAzODUgMTA3VDM1MiA1MVQyODkgN1QxOTUgLTEwUTExOCAtMTAgODYgMTlUNTMgODdRNTMgMTI2IDc0IDE0M1QxMTggMTYwUTEzMyAxNjAgMTQ2IDE1MVQxNjAgMTIwUTE2MCA5NCAxNDIgNzZUMTExIDU4UTEwOSA1NyAxMDggNTdUMTA3IDU1UTEwOCA1MiAxMTUgNDdUMTQ2IDM0VDIwMSAyN1EyMzcgMjcgMjYzIDM4VDMwMSA2NlQzMTggOTdUMzIzIDEyMlEzMjMgMTUwIDMwMiAxNjRUMjU0IDE4MVQxOTUgMTk2VDE0OCAyMzFRMTMxIDI1NiAxMzEgMjg5WiIgaWQ9Ik1KWC03LVRFWC1JLTFENDYwIi8+PHBhdGggZD0iTTc5IDQzUTczIDQzIDUyIDQ5VDMwIDYxUTMwIDY4IDg1IDI5M1QxNDYgNTI4UTE2MSA1NjAgMTk4IDU2MFEyMTggNTYwIDI0MCA1NDVUMjYyIDUwMVEyNjIgNDk2IDI2MCA0ODZRMjU5IDQ3OSAxNzMgMjYzVDg0IDQ1VDc5IDQzWiIgaWQ9Ik1KWC03LVRFWC1WLTIwMzIiLz48L2RlZnM+PGcgdHJhbnNmb3JtPSJzY2FsZSgxLC0xKSIgc3Ryb2tlLXdpZHRoPSIwIiBmaWxsPSIjMDAwMDAwIiBzdHJva2U9IiMwMDAwMDAiPjxnIGRhdGEtbW1sLW5vZGU9Im1hdGgiPjxnIGRhdGEtbW1sLW5vZGU9Im1zdXAiPjxnIGRhdGEtbW1sLW5vZGU9Im1pIj48dXNlIHhsaW5rOmhyZWY9IiNNSlgtNy1URVgtSS0xRDQ2MCIgZGF0YS1jPSIxRDQ2MCIvPjwvZz48ZyB0cmFuc2Zvcm09InRyYW5zbGF0ZSg1MDIsNDEzKSBzY2FsZSgwLjcwNykiIGRhdGEtbW1sLW5vZGU9Im1vIj48dXNlIHhsaW5rOmhyZWY9IiNNSlgtNy1URVgtVi0yMDMyIiBkYXRhLWM9IjIwMzIiLz48L2c+PC9nPjwvZz48L2c+PC9zdmc+;" vertex="1" parent="1">
          <mxGeometry x="893" y="740.4300000000001" width="14" height="19.13" as="geometry" />
        </mxCell>
        <mxCell id="1QXLRgYbMNCZf00Bbz8j-39" value="" style="shape=image;verticalLabelPosition=bottom;labelBackgroundColor=default;verticalAlign=top;aspect=fixed;imageAspect=0;editableCssRules=.*;image=data:image/svg+xml,PHN2ZyB4bWxuczp4bGluaz0iaHR0cDovL3d3dy53My5vcmcvMTk5OS94bGluayIgeG1sbnM9Imh0dHA6Ly93d3cudzMub3JnLzIwMDAvc3ZnIiBzdHlsZT0iIiBhcmlhLWhpZGRlbj0idHJ1ZSIgdmlld0JveD0iNTMgLTgwOC45MTk5ODI5MTAxNTYyIDYzNC4yMzQwMDg3ODkwNjI1IDgxOC45MTk5ODI5MTAxNTYyIiBoZWlnaHQ9IjE0LjgyMjU1MTY4MDkwMzczIiB3aWR0aD0iMTEuNDc5OTMyOTIyNjQ5NDQ4Ij48ZGVmcz48cGF0aCBkPSJNMTMxIDI4OVExMzEgMzIxIDE0NyAzNTRUMjAzIDQxNVQzMDAgNDQyUTM2MiA0NDIgMzkwIDQxNVQ0MTkgMzU1UTQxOSAzMjMgNDAyIDMwOFQzNjQgMjkyUTM1MSAyOTIgMzQwIDMwMFQzMjggMzI2UTMyOCAzNDIgMzM3IDM1NFQzNTQgMzcyVDM2NyAzNzhRMzY4IDM3OCAzNjggMzc5UTM2OCAzODIgMzYxIDM4OFQzMzYgMzk5VDI5NyA0MDVRMjQ5IDQwNSAyMjcgMzc5VDIwNCAzMjZRMjA0IDMwMSAyMjMgMjkxVDI3OCAyNzRUMzMwIDI1OVEzOTYgMjMwIDM5NiAxNjNRMzk2IDEzNSAzODUgMTA3VDM1MiA1MVQyODkgN1QxOTUgLTEwUTExOCAtMTAgODYgMTlUNTMgODdRNTMgMTI2IDc0IDE0M1QxMTggMTYwUTEzMyAxNjAgMTQ2IDE1MVQxNjAgMTIwUTE2MCA5NCAxNDIgNzZUMTExIDU4UTEwOSA1NyAxMDggNTdUMTA3IDU1UTEwOCA1MiAxMTUgNDdUMTQ2IDM0VDIwMSAyN1EyMzcgMjcgMjYzIDM4VDMwMSA2NlQzMTggOTdUMzIzIDEyMlEzMjMgMTUwIDMwMiAxNjRUMjU0IDE4MVQxOTUgMTk2VDE0OCAyMzFRMTMxIDI1NiAxMzEgMjg5WiIgaWQ9Ik1KWC03LVRFWC1JLTFENDYwIi8+PHBhdGggZD0iTTc5IDQzUTczIDQzIDUyIDQ5VDMwIDYxUTMwIDY4IDg1IDI5M1QxNDYgNTI4UTE2MSA1NjAgMTk4IDU2MFEyMTggNTYwIDI0MCA1NDVUMjYyIDUwMVEyNjIgNDk2IDI2MCA0ODZRMjU5IDQ3OSAxNzMgMjYzVDg0IDQ1VDc5IDQzWiIgaWQ9Ik1KWC03LVRFWC1WLTIwMzIiLz48L2RlZnM+PGcgdHJhbnNmb3JtPSJzY2FsZSgxLC0xKSIgc3Ryb2tlLXdpZHRoPSIwIiBmaWxsPSIjMDAwMDAwIiBzdHJva2U9IiMwMDAwMDAiPjxnIGRhdGEtbW1sLW5vZGU9Im1hdGgiPjxnIGRhdGEtbW1sLW5vZGU9Im1zdXAiPjxnIGRhdGEtbW1sLW5vZGU9Im1pIj48dXNlIHhsaW5rOmhyZWY9IiNNSlgtNy1URVgtSS0xRDQ2MCIgZGF0YS1jPSIxRDQ2MCIvPjwvZz48ZyB0cmFuc2Zvcm09InRyYW5zbGF0ZSg1MDIsNDEzKSBzY2FsZSgwLjcwNykiIGRhdGEtbW1sLW5vZGU9Im1vIj48dXNlIHhsaW5rOmhyZWY9IiNNSlgtNy1URVgtVi0yMDMyIiBkYXRhLWM9IjIwMzIiLz48L2c+PC9nPjwvZz48L2c+PC9zdmc+;" vertex="1" parent="1">
          <mxGeometry x="773" y="860.4300000000001" width="14" height="19.13" as="geometry" />
        </mxCell>
        <mxCell id="1QXLRgYbMNCZf00Bbz8j-40" value="90%" style="text;html=1;align=center;verticalAlign=middle;whiteSpace=wrap;rounded=0;" vertex="1" parent="1">
          <mxGeometry x="740" y="680.3399999999999" width="35" height="20" as="geometry" />
        </mxCell>
        <mxCell id="1QXLRgYbMNCZf00Bbz8j-41" value="2%" style="text;html=1;align=center;verticalAlign=middle;whiteSpace=wrap;rounded=0;" vertex="1" parent="1">
          <mxGeometry x="745" y="800" width="25" height="20" as="geometry" />
        </mxCell>
        <mxCell id="1QXLRgYbMNCZf00Bbz8j-42" value="4%" style="text;html=1;align=center;verticalAlign=middle;whiteSpace=wrap;rounded=0;" vertex="1" parent="1">
          <mxGeometry x="710" y="724.27" width="20" height="20" as="geometry" />
        </mxCell>
        <mxCell id="1QXLRgYbMNCZf00Bbz8j-43" value="4%" style="text;html=1;align=center;verticalAlign=middle;whiteSpace=wrap;rounded=0;" vertex="1" parent="1">
          <mxGeometry x="830" y="724.27" width="20" height="20" as="geometry" />
        </mxCell>
        <mxCell id="1QXLRgYbMNCZf00Bbz8j-45" value="" style="shape=image;verticalLabelPosition=bottom;labelBackgroundColor=default;verticalAlign=top;aspect=fixed;imageAspect=0;editableCssRules=.*;image=data:image/svg+xml,PHN2ZyB4bWxuczp4bGluaz0iaHR0cDovL3d3dy53My5vcmcvMTk5OS94bGluayIgeG1sbnM9Imh0dHA6Ly93d3cudzMub3JnLzIwMDAvc3ZnIiBzdHlsZT0iIiBhcmlhLWhpZGRlbj0idHJ1ZSIgdmlld0JveD0iMjEgLTY2NiAyMTkwLjYwMDA5NzY1NjI1IDY3NyIgaGVpZ2h0PSIxMi4yNTExNjU3NzU0MDEwNyIgd2lkdGg9IjM5LjY1MDU3MTMyMDI2NjY3Ij48ZGVmcz48cGF0aCBkPSJNMjEgMjg3UTIyIDI5MCAyMyAyOTVUMjggMzE3VDM4IDM0OFQ1MyAzODFUNzMgNDExVDk5IDQzM1QxMzIgNDQyUTE2MSA0NDIgMTgzIDQzMFQyMTQgNDA4VDIyNSAzODhRMjI3IDM4MiAyMjggMzgyVDIzNiAzODlRMjg0IDQ0MSAzNDcgNDQxSDM1MFEzOTggNDQxIDQyMiA0MDBRNDMwIDM4MSA0MzAgMzYzUTQzMCAzMzMgNDE3IDMxNVQzOTEgMjkyVDM2NiAyODhRMzQ2IDI4OCAzMzQgMjk5VDMyMiAzMjhRMzIyIDM3NiAzNzggMzkyUTM1NiA0MDUgMzQyIDQwNVEyODYgNDA1IDIzOSAzMzFRMjI5IDMxNSAyMjQgMjk4VDE5MCAxNjVRMTU2IDI1IDE1MSAxNlExMzggLTExIDEwOCAtMTFROTUgLTExIDg3IC01VDc2IDdUNzQgMTdRNzQgMzAgMTE0IDE4OVQxNTQgMzY2UTE1NCA0MDUgMTI4IDQwNVExMDcgNDA1IDkyIDM3N1Q2OCAzMTZUNTcgMjgwUTU1IDI3OCA0MSAyNzhIMjdRMjEgMjg0IDIxIDI4N1oiIGlkPSJNSlgtMTAtVEVYLUktMUQ0NUYiLz48cGF0aCBkPSJNNTYgMzQ3UTU2IDM2MCA3MCAzNjdINzA3UTcyMiAzNTkgNzIyIDM0N1E3MjIgMzM2IDcwOCAzMjhMMzkwIDMyN0g3MlE1NiAzMzIgNTYgMzQ3Wk01NiAxNTNRNTYgMTY4IDcyIDE3M0g3MDhRNzIyIDE2MyA3MjIgMTUzUTcyMiAxNDAgNzA3IDEzM0g3MFE1NiAxNDAgNTYgMTUzWiIgaWQ9Ik1KWC0xMC1URVgtTi0zRCIvPjxwYXRoIGQ9Ik0yMTMgNTc4TDIwMCA1NzNRMTg2IDU2OCAxNjAgNTYzVDEwMiA1NTZIODNWNjAySDEwMlExNDkgNjA0IDE4OSA2MTdUMjQ1IDY0MVQyNzMgNjYzUTI3NSA2NjYgMjg1IDY2NlEyOTQgNjY2IDMwMiA2NjBWMzYxTDMwMyA2MVEzMTAgNTQgMzE1IDUyVDMzOSA0OFQ0MDEgNDZINDI3VjBINDE2UTM5NSAzIDI1NyAzUTEyMSAzIDEwMCAwSDg4VjQ2SDExNFExMzYgNDYgMTUyIDQ2VDE3NyA0N1QxOTMgNTBUMjAxIDUyVDIwNyA1N1QyMTMgNjFWNTc4WiIgaWQ9Ik1KWC0xMC1URVgtTi0zMSIvPjwvZGVmcz48ZyB0cmFuc2Zvcm09InNjYWxlKDEsLTEpIiBzdHJva2Utd2lkdGg9IjAiIGZpbGw9IiMwMDAwMDAiIHN0cm9rZT0iIzAwMDAwMCI+PGcgZGF0YS1tbWwtbm9kZT0ibWF0aCI+PGcgZGF0YS1tbWwtbm9kZT0ibWkiPjx1c2UgeGxpbms6aHJlZj0iI01KWC0xMC1URVgtSS0xRDQ1RiIgZGF0YS1jPSIxRDQ1RiIvPjwvZz48ZyB0cmFuc2Zvcm09InRyYW5zbGF0ZSg3MjguOCwwKSIgZGF0YS1tbWwtbm9kZT0ibW8iPjx1c2UgeGxpbms6aHJlZj0iI01KWC0xMC1URVgtTi0zRCIgZGF0YS1jPSIzRCIvPjwvZz48ZyB0cmFuc2Zvcm09InRyYW5zbGF0ZSgxNzg0LjYsMCkiIGRhdGEtbW1sLW5vZGU9Im1uIj48dXNlIHhsaW5rOmhyZWY9IiNNSlgtMTAtVEVYLU4tMzEiIGRhdGEtYz0iMzEiLz48L2c+PC9nPjwvZz48L3N2Zz4=;rotation=60;" vertex="1" parent="1">
          <mxGeometry x="830" y="643" width="30.01" height="9" as="geometry" />
        </mxCell>
        <mxCell id="1QXLRgYbMNCZf00Bbz8j-47" value="" style="shape=image;verticalLabelPosition=bottom;labelBackgroundColor=default;verticalAlign=top;aspect=fixed;imageAspect=0;editableCssRules=.*;image=data:image/svg+xml,PHN2ZyB4bWxuczp4bGluaz0iaHR0cDovL3d3dy53My5vcmcvMTk5OS94bGluayIgeG1sbnM9Imh0dHA6Ly93d3cudzMub3JnLzIwMDAvc3ZnIiBzdHlsZT0iIiBhcmlhLWhpZGRlbj0idHJ1ZSIgdmlld0JveD0iMjEgLTY2NiAyMjIzLjYwMDA5NzY1NjI1IDY4OCIgaGVpZ2h0PSIxMi40NTAyMjQ1OTg5MzA0OCIgd2lkdGg9IjQwLjI0Nzg4MjAwOTIyNzU0Ij48ZGVmcz48cGF0aCBkPSJNMjEgMjg3UTIyIDI5MCAyMyAyOTVUMjggMzE3VDM4IDM0OFQ1MyAzODFUNzMgNDExVDk5IDQzM1QxMzIgNDQyUTE2MSA0NDIgMTgzIDQzMFQyMTQgNDA4VDIyNSAzODhRMjI3IDM4MiAyMjggMzgyVDIzNiAzODlRMjg0IDQ0MSAzNDcgNDQxSDM1MFEzOTggNDQxIDQyMiA0MDBRNDMwIDM4MSA0MzAgMzYzUTQzMCAzMzMgNDE3IDMxNVQzOTEgMjkyVDM2NiAyODhRMzQ2IDI4OCAzMzQgMjk5VDMyMiAzMjhRMzIyIDM3NiAzNzggMzkyUTM1NiA0MDUgMzQyIDQwNVEyODYgNDA1IDIzOSAzMzFRMjI5IDMxNSAyMjQgMjk4VDE5MCAxNjVRMTU2IDI1IDE1MSAxNlExMzggLTExIDEwOCAtMTFROTUgLTExIDg3IC01VDc2IDdUNzQgMTdRNzQgMzAgMTE0IDE4OVQxNTQgMzY2UTE1NCA0MDUgMTI4IDQwNVExMDcgNDA1IDkyIDM3N1Q2OCAzMTZUNTcgMjgwUTU1IDI3OCA0MSAyNzhIMjdRMjEgMjg0IDIxIDI4N1oiIGlkPSJNSlgtMTItVEVYLUktMUQ0NUYiLz48cGF0aCBkPSJNNTYgMzQ3UTU2IDM2MCA3MCAzNjdINzA3UTcyMiAzNTkgNzIyIDM0N1E3MjIgMzM2IDcwOCAzMjhMMzkwIDMyN0g3MlE1NiAzMzIgNTYgMzQ3Wk01NiAxNTNRNTYgMTY4IDcyIDE3M0g3MDhRNzIyIDE2MyA3MjIgMTUzUTcyMiAxNDAgNzA3IDEzM0g3MFE1NiAxNDAgNTYgMTUzWiIgaWQ9Ik1KWC0xMi1URVgtTi0zRCIvPjxwYXRoIGQ9Ik05NiA1ODVRMTUyIDY2NiAyNDkgNjY2UTI5NyA2NjYgMzQ1IDY0MFQ0MjMgNTQ4UTQ2MCA0NjUgNDYwIDMyMFE0NjAgMTY1IDQxNyA4M1EzOTcgNDEgMzYyIDE2VDMwMSAtMTVUMjUwIC0yMlEyMjQgLTIyIDE5OCAtMTZUMTM3IDE2VDgyIDgzUTM5IDE2NSAzOSAzMjBRMzkgNDk0IDk2IDU4NVpNMzIxIDU5N1EyOTEgNjI5IDI1MCA2MjlRMjA4IDYyOSAxNzggNTk3UTE1MyA1NzEgMTQ1IDUyNVQxMzcgMzMzUTEzNyAxNzUgMTQ1IDEyNVQxODEgNDZRMjA5IDE2IDI1MCAxNlEyOTAgMTYgMzE4IDQ2UTM0NyA3NiAzNTQgMTMwVDM2MiAzMzNRMzYyIDQ3OCAzNTQgNTI0VDMyMSA1OTdaIiBpZD0iTUpYLTEyLVRFWC1OLTMwIi8+PC9kZWZzPjxnIHRyYW5zZm9ybT0ic2NhbGUoMSwtMSkiIHN0cm9rZS13aWR0aD0iMCIgZmlsbD0iIzAwMDAwMCIgc3Ryb2tlPSIjMDAwMDAwIj48ZyBkYXRhLW1tbC1ub2RlPSJtYXRoIj48ZyBkYXRhLW1tbC1ub2RlPSJtaSI+PHVzZSB4bGluazpocmVmPSIjTUpYLTEyLVRFWC1JLTFENDVGIiBkYXRhLWM9IjFENDVGIi8+PC9nPjxnIHRyYW5zZm9ybT0idHJhbnNsYXRlKDcyOC44LDApIiBkYXRhLW1tbC1ub2RlPSJtbyI+PHVzZSB4bGluazpocmVmPSIjTUpYLTEyLVRFWC1OLTNEIiBkYXRhLWM9IjNEIi8+PC9nPjxnIHRyYW5zZm9ybT0idHJhbnNsYXRlKDE3ODQuNiwwKSIgZGF0YS1tbWwtbm9kZT0ibW4iPjx1c2UgeGxpbms6aHJlZj0iI01KWC0xMi1URVgtTi0zMCIgZGF0YS1jPSIzMCIvPjwvZz48L2c+PC9nPjwvc3ZnPg==;rotation=47;" vertex="1" parent="1">
          <mxGeometry x="836" y="623" width="30.01" height="9" as="geometry" />
        </mxCell>
        <mxCell id="1QXLRgYbMNCZf00Bbz8j-48" value="" style="shape=image;verticalLabelPosition=bottom;labelBackgroundColor=default;verticalAlign=top;aspect=fixed;imageAspect=0;editableCssRules=.*;image=data:image/svg+xml,PHN2ZyB4bWxuczp4bGluaz0iaHR0cDovL3d3dy53My5vcmcvMTk5OS94bGluayIgeG1sbnM9Imh0dHA6Ly93d3cudzMub3JnLzIwMDAvc3ZnIiBzdHlsZT0iIiBhcmlhLWhpZGRlbj0idHJ1ZSIgdmlld0JveD0iMjEgLTY2NiAyOTY4LjYwMDA5NzY1NjI1IDY3NyIgaGVpZ2h0PSIxMi4yNTExNjU3NzU0MDEwNyIgd2lkdGg9IjUzLjczMDYzNDMwMTk5MjE4Ij48ZGVmcz48cGF0aCBkPSJNMjEgMjg3UTIyIDI5MCAyMyAyOTVUMjggMzE3VDM4IDM0OFQ1MyAzODFUNzMgNDExVDk5IDQzM1QxMzIgNDQyUTE2MSA0NDIgMTgzIDQzMFQyMTQgNDA4VDIyNSAzODhRMjI3IDM4MiAyMjggMzgyVDIzNiAzODlRMjg0IDQ0MSAzNDcgNDQxSDM1MFEzOTggNDQxIDQyMiA0MDBRNDMwIDM4MSA0MzAgMzYzUTQzMCAzMzMgNDE3IDMxNVQzOTEgMjkyVDM2NiAyODhRMzQ2IDI4OCAzMzQgMjk5VDMyMiAzMjhRMzIyIDM3NiAzNzggMzkyUTM1NiA0MDUgMzQyIDQwNVEyODYgNDA1IDIzOSAzMzFRMjI5IDMxNSAyMjQgMjk4VDE5MCAxNjVRMTU2IDI1IDE1MSAxNlExMzggLTExIDEwOCAtMTFROTUgLTExIDg3IC01VDc2IDdUNzQgMTdRNzQgMzAgMTE0IDE4OVQxNTQgMzY2UTE1NCA0MDUgMTI4IDQwNVExMDcgNDA1IDkyIDM3N1Q2OCAzMTZUNTcgMjgwUTU1IDI3OCA0MSAyNzhIMjdRMjEgMjg0IDIxIDI4N1oiIGlkPSJNSlgtMTMtVEVYLUktMUQ0NUYiLz48cGF0aCBkPSJNNTYgMzQ3UTU2IDM2MCA3MCAzNjdINzA3UTcyMiAzNTkgNzIyIDM0N1E3MjIgMzM2IDcwOCAzMjhMMzkwIDMyN0g3MlE1NiAzMzIgNTYgMzQ3Wk01NiAxNTNRNTYgMTY4IDcyIDE3M0g3MDhRNzIyIDE2MyA3MjIgMTUzUTcyMiAxNDAgNzA3IDEzM0g3MFE1NiAxNDAgNTYgMTUzWiIgaWQ9Ik1KWC0xMy1URVgtTi0zRCIvPjxwYXRoIGQ9Ik04NCAyMzdUODQgMjUwVDk4IDI3MEg2NzlRNjk0IDI2MiA2OTQgMjUwVDY3OSAyMzBIOThRODQgMjM3IDg0IDI1MFoiIGlkPSJNSlgtMTMtVEVYLU4tMjIxMiIvPjxwYXRoIGQ9Ik0yMTMgNTc4TDIwMCA1NzNRMTg2IDU2OCAxNjAgNTYzVDEwMiA1NTZIODNWNjAySDEwMlExNDkgNjA0IDE4OSA2MTdUMjQ1IDY0MVQyNzMgNjYzUTI3NSA2NjYgMjg1IDY2NlEyOTQgNjY2IDMwMiA2NjBWMzYxTDMwMyA2MVEzMTAgNTQgMzE1IDUyVDMzOSA0OFQ0MDEgNDZINDI3VjBINDE2UTM5NSAzIDI1NyAzUTEyMSAzIDEwMCAwSDg4VjQ2SDExNFExMzYgNDYgMTUyIDQ2VDE3NyA0N1QxOTMgNTBUMjAxIDUyVDIwNyA1N1QyMTMgNjFWNTc4WiIgaWQ9Ik1KWC0xMy1URVgtTi0zMSIvPjwvZGVmcz48ZyB0cmFuc2Zvcm09InNjYWxlKDEsLTEpIiBzdHJva2Utd2lkdGg9IjAiIGZpbGw9IiMwMDAwMDAiIHN0cm9rZT0iIzAwMDAwMCI+PGcgZGF0YS1tbWwtbm9kZT0ibWF0aCI+PGcgZGF0YS1tbWwtbm9kZT0ibWkiPjx1c2UgeGxpbms6aHJlZj0iI01KWC0xMy1URVgtSS0xRDQ1RiIgZGF0YS1jPSIxRDQ1RiIvPjwvZz48ZyB0cmFuc2Zvcm09InRyYW5zbGF0ZSg3MjguOCwwKSIgZGF0YS1tbWwtbm9kZT0ibW8iPjx1c2UgeGxpbms6aHJlZj0iI01KWC0xMy1URVgtTi0zRCIgZGF0YS1jPSIzRCIvPjwvZz48ZyB0cmFuc2Zvcm09InRyYW5zbGF0ZSgxNzg0LjYsMCkiIGRhdGEtbW1sLW5vZGU9Im1vIj48dXNlIHhsaW5rOmhyZWY9IiNNSlgtMTMtVEVYLU4tMjIxMiIgZGF0YS1jPSIyMjEyIi8+PC9nPjxnIHRyYW5zZm9ybT0idHJhbnNsYXRlKDI1NjIuNiwwKSIgZGF0YS1tbWwtbm9kZT0ibW4iPjx1c2UgeGxpbms6aHJlZj0iI01KWC0xMy1URVgtTi0zMSIgZGF0YS1jPSIzMSIvPjwvZz48L2c+PC9nPjwvc3ZnPg==;rotation=40;" vertex="1" parent="1">
          <mxGeometry x="837" y="603.9999999999999" width="40.5" height="9" as="geometry" />
        </mxCell>
        <mxCell id="1QXLRgYbMNCZf00Bbz8j-49" value="" style="curved=1;endArrow=openThin;html=1;rounded=0;entryX=1;entryY=0.5;entryDx=0;entryDy=0;strokeColor=#97D077;strokeWidth=3;endFill=0;" edge="1" parent="1" target="1QXLRgYbMNCZf00Bbz8j-26">
          <mxGeometry width="50" height="50" relative="1" as="geometry">
            <mxPoint x="820" y="710" as="sourcePoint" />
            <mxPoint x="870" y="660" as="targetPoint" />
            <Array as="points">
              <mxPoint x="870" y="680" />
            </Array>
          </mxGeometry>
        </mxCell>
        <mxCell id="1QXLRgYbMNCZf00Bbz8j-50" value="" style="curved=1;endArrow=openThin;html=1;rounded=0;entryX=1;entryY=0.25;entryDx=0;entryDy=0;strokeColor=#97D077;strokeWidth=2;endFill=0;exitX=1;exitY=0;exitDx=0;exitDy=0;" edge="1" parent="1" source="1QXLRgYbMNCZf00Bbz8j-25" target="1QXLRgYbMNCZf00Bbz8j-26">
          <mxGeometry width="50" height="50" relative="1" as="geometry">
            <mxPoint x="830" y="720" as="sourcePoint" />
            <mxPoint x="830" y="640" as="targetPoint" />
            <Array as="points">
              <mxPoint x="900" y="670" />
            </Array>
          </mxGeometry>
        </mxCell>
        <mxCell id="1QXLRgYbMNCZf00Bbz8j-51" value="" style="curved=1;endArrow=openThin;html=1;rounded=0;entryX=1;entryY=0;entryDx=0;entryDy=0;strokeColor=#97D077;strokeWidth=1.5;endFill=0;exitX=1;exitY=0;exitDx=0;exitDy=0;" edge="1" parent="1" source="1QXLRgYbMNCZf00Bbz8j-25" target="1QXLRgYbMNCZf00Bbz8j-26">
          <mxGeometry width="50" height="50" relative="1" as="geometry">
            <mxPoint x="830" y="720" as="sourcePoint" />
            <mxPoint x="830" y="620" as="targetPoint" />
            <Array as="points">
              <mxPoint x="930" y="660" />
            </Array>
          </mxGeometry>
        </mxCell>
        <mxCell id="1QXLRgYbMNCZf00Bbz8j-52" value="80%" style="text;html=1;align=center;verticalAlign=middle;whiteSpace=wrap;rounded=0;fontColor=#97D077;" vertex="1" parent="1">
          <mxGeometry x="789" y="612" width="33" height="20" as="geometry" />
        </mxCell>
        <mxCell id="1QXLRgYbMNCZf00Bbz8j-53" value="15%" style="text;html=1;align=center;verticalAlign=middle;whiteSpace=wrap;rounded=0;fontColor=#97D077;" vertex="1" parent="1">
          <mxGeometry x="789" y="592" width="33" height="20" as="geometry" />
        </mxCell>
        <mxCell id="1QXLRgYbMNCZf00Bbz8j-54" value="5%" style="text;html=1;align=center;verticalAlign=middle;whiteSpace=wrap;rounded=0;fontColor=#97D077;" vertex="1" parent="1">
          <mxGeometry x="789" y="570" width="33" height="20" as="geometry" />
        </mxCell>
        <mxCell id="1QXLRgYbMNCZf00Bbz8j-56" value="" style="whiteSpace=wrap;html=1;aspect=fixed;" vertex="1" parent="1">
          <mxGeometry x="150" y="-50" width="80" height="80" as="geometry" />
        </mxCell>
        <mxCell id="1QXLRgYbMNCZf00Bbz8j-57" value="" style="whiteSpace=wrap;html=1;aspect=fixed;" vertex="1" parent="1">
          <mxGeometry x="150" y="-170" width="80" height="80" as="geometry" />
        </mxCell>
        <mxCell id="1QXLRgYbMNCZf00Bbz8j-58" value="" style="whiteSpace=wrap;html=1;aspect=fixed;" vertex="1" parent="1">
          <mxGeometry x="270" y="-50" width="80" height="80" as="geometry" />
        </mxCell>
        <mxCell id="1QXLRgYbMNCZf00Bbz8j-59" value="" style="whiteSpace=wrap;html=1;aspect=fixed;" vertex="1" parent="1">
          <mxGeometry x="30" y="-50" width="80" height="80" as="geometry" />
        </mxCell>
        <mxCell id="1QXLRgYbMNCZf00Bbz8j-60" value="" style="whiteSpace=wrap;html=1;aspect=fixed;" vertex="1" parent="1">
          <mxGeometry x="150" y="70" width="80" height="80" as="geometry" />
        </mxCell>
        <mxCell id="1QXLRgYbMNCZf00Bbz8j-61" value="" style="shape=image;verticalLabelPosition=bottom;labelBackgroundColor=default;verticalAlign=top;aspect=fixed;imageAspect=0;editableCssRules=.*;image=data:image/svg+xml,PHN2ZyB4bWxuczp4bGluaz0iaHR0cDovL3d3dy53My5vcmcvMTk5OS94bGluayIgeG1sbnM9Imh0dHA6Ly93d3cudzMub3JnLzIwMDAvc3ZnIiBzdHlsZT0iIiBhcmlhLWhpZGRlbj0idHJ1ZSIgdmlld0JveD0iNTMgLTQ0Mi4wMzQ0ODQ4NjMyODEyNSAzNjYgNDUyLjAzNDQ4NDg2MzI4MTI1IiBoZWlnaHQ9IjguMTg0NjI0Mzg5NjQ4NDM3IiB3aWR0aD0iNi42MjM4OTc2NTQ1ODQyMjEiPjxkZWZzPjxwYXRoIGQ9Ik0xMzEgMjg5UTEzMSAzMjEgMTQ3IDM1NFQyMDMgNDE1VDMwMCA0NDJRMzYyIDQ0MiAzOTAgNDE1VDQxOSAzNTVRNDE5IDMyMyA0MDIgMzA4VDM2NCAyOTJRMzUxIDI5MiAzNDAgMzAwVDMyOCAzMjZRMzI4IDM0MiAzMzcgMzU0VDM1NCAzNzJUMzY3IDM3OFEzNjggMzc4IDM2OCAzNzlRMzY4IDM4MiAzNjEgMzg4VDMzNiAzOTlUMjk3IDQwNVEyNDkgNDA1IDIyNyAzNzlUMjA0IDMyNlEyMDQgMzAxIDIyMyAyOTFUMjc4IDI3NFQzMzAgMjU5UTM5NiAyMzAgMzk2IDE2M1EzOTYgMTM1IDM4NSAxMDdUMzUyIDUxVDI4OSA3VDE5NSAtMTBRMTE4IC0xMCA4NiAxOVQ1MyA4N1E1MyAxMjYgNzQgMTQzVDExOCAxNjBRMTMzIDE2MCAxNDYgMTUxVDE2MCAxMjBRMTYwIDk0IDE0MiA3NlQxMTEgNThRMTA5IDU3IDEwOCA1N1QxMDcgNTVRMTA4IDUyIDExNSA0N1QxNDYgMzRUMjAxIDI3UTIzNyAyNyAyNjMgMzhUMzAxIDY2VDMxOCA5N1QzMjMgMTIyUTMyMyAxNTAgMzAyIDE2NFQyNTQgMTgxVDE5NSAxOTZUMTQ4IDIzMVExMzEgMjU2IDEzMSAyODlaIiBpZD0iTUpYLTYtVEVYLUktMUQ0NjAiLz48L2RlZnM+PGcgdHJhbnNmb3JtPSJzY2FsZSgxLC0xKSIgc3Ryb2tlLXdpZHRoPSIwIiBmaWxsPSIjMDAwMDAwIiBzdHJva2U9IiMwMDAwMDAiPjxnIGRhdGEtbW1sLW5vZGU9Im1hdGgiPjxnIGRhdGEtbW1sLW5vZGU9Im1pIj48dXNlIHhsaW5rOmhyZWY9IiNNSlgtNi1URVgtSS0xRDQ2MCIgZGF0YS1jPSIxRDQ2MCIvPjwvZz48L2c+PC9nPjwvc3ZnPg==;" vertex="1" parent="1">
          <mxGeometry x="185" y="-15.730000000000018" width="10" height="11.45" as="geometry" />
        </mxCell>
        <mxCell id="1QXLRgYbMNCZf00Bbz8j-62" value="" style="shape=image;verticalLabelPosition=bottom;labelBackgroundColor=default;verticalAlign=top;aspect=fixed;imageAspect=0;editableCssRules=.*;image=data:image/svg+xml,PHN2ZyB4bWxuczp4bGluaz0iaHR0cDovL3d3dy53My5vcmcvMTk5OS94bGluayIgeG1sbnM9Imh0dHA6Ly93d3cudzMub3JnLzIwMDAvc3ZnIiBzdHlsZT0iIiBhcmlhLWhpZGRlbj0idHJ1ZSIgdmlld0JveD0iNTMgLTgwOC45MTk5ODI5MTAxNTYyIDYzNC4yMzQwMDg3ODkwNjI1IDgxOC45MTk5ODI5MTAxNTYyIiBoZWlnaHQ9IjE0LjgyMjU1MTY4MDkwMzczIiB3aWR0aD0iMTEuNDc5OTMyOTIyNjQ5NDQ4Ij48ZGVmcz48cGF0aCBkPSJNMTMxIDI4OVExMzEgMzIxIDE0NyAzNTRUMjAzIDQxNVQzMDAgNDQyUTM2MiA0NDIgMzkwIDQxNVQ0MTkgMzU1UTQxOSAzMjMgNDAyIDMwOFQzNjQgMjkyUTM1MSAyOTIgMzQwIDMwMFQzMjggMzI2UTMyOCAzNDIgMzM3IDM1NFQzNTQgMzcyVDM2NyAzNzhRMzY4IDM3OCAzNjggMzc5UTM2OCAzODIgMzYxIDM4OFQzMzYgMzk5VDI5NyA0MDVRMjQ5IDQwNSAyMjcgMzc5VDIwNCAzMjZRMjA0IDMwMSAyMjMgMjkxVDI3OCAyNzRUMzMwIDI1OVEzOTYgMjMwIDM5NiAxNjNRMzk2IDEzNSAzODUgMTA3VDM1MiA1MVQyODkgN1QxOTUgLTEwUTExOCAtMTAgODYgMTlUNTMgODdRNTMgMTI2IDc0IDE0M1QxMTggMTYwUTEzMyAxNjAgMTQ2IDE1MVQxNjAgMTIwUTE2MCA5NCAxNDIgNzZUMTExIDU4UTEwOSA1NyAxMDggNTdUMTA3IDU1UTEwOCA1MiAxMTUgNDdUMTQ2IDM0VDIwMSAyN1EyMzcgMjcgMjYzIDM4VDMwMSA2NlQzMTggOTdUMzIzIDEyMlEzMjMgMTUwIDMwMiAxNjRUMjU0IDE4MVQxOTUgMTk2VDE0OCAyMzFRMTMxIDI1NiAxMzEgMjg5WiIgaWQ9Ik1KWC03LVRFWC1JLTFENDYwIi8+PHBhdGggZD0iTTc5IDQzUTczIDQzIDUyIDQ5VDMwIDYxUTMwIDY4IDg1IDI5M1QxNDYgNTI4UTE2MSA1NjAgMTk4IDU2MFEyMTggNTYwIDI0MCA1NDVUMjYyIDUwMVEyNjIgNDk2IDI2MCA0ODZRMjU5IDQ3OSAxNzMgMjYzVDg0IDQ1VDc5IDQzWiIgaWQ9Ik1KWC03LVRFWC1WLTIwMzIiLz48L2RlZnM+PGcgdHJhbnNmb3JtPSJzY2FsZSgxLC0xKSIgc3Ryb2tlLXdpZHRoPSIwIiBmaWxsPSIjMDAwMDAwIiBzdHJva2U9IiMwMDAwMDAiPjxnIGRhdGEtbW1sLW5vZGU9Im1hdGgiPjxnIGRhdGEtbW1sLW5vZGU9Im1zdXAiPjxnIGRhdGEtbW1sLW5vZGU9Im1pIj48dXNlIHhsaW5rOmhyZWY9IiNNSlgtNy1URVgtSS0xRDQ2MCIgZGF0YS1jPSIxRDQ2MCIvPjwvZz48ZyB0cmFuc2Zvcm09InRyYW5zbGF0ZSg1MDIsNDEzKSBzY2FsZSgwLjcwNykiIGRhdGEtbW1sLW5vZGU9Im1vIj48dXNlIHhsaW5rOmhyZWY9IiNNSlgtNy1URVgtVi0yMDMyIiBkYXRhLWM9IjIwMzIiLz48L2c+PC9nPjwvZz48L2c+PC9zdmc+;" vertex="1" parent="1">
          <mxGeometry x="185" y="-139.57" width="14" height="19.13" as="geometry" />
        </mxCell>
        <mxCell id="1QXLRgYbMNCZf00Bbz8j-63" value="" style="shape=image;verticalLabelPosition=bottom;labelBackgroundColor=default;verticalAlign=top;aspect=fixed;imageAspect=0;editableCssRules=.*;image=data:image/svg+xml,PHN2ZyB4bWxuczp4bGluaz0iaHR0cDovL3d3dy53My5vcmcvMTk5OS94bGluayIgeG1sbnM9Imh0dHA6Ly93d3cudzMub3JnLzIwMDAvc3ZnIiBzdHlsZT0iIiBhcmlhLWhpZGRlbj0idHJ1ZSIgdmlld0JveD0iMzMgLTQ0MSA0NzMgNDUxIiBoZWlnaHQ9IjguMTYiIHdpZHRoPSI4LjU2MjI4MzU1Mzg3NTIzNiI+PGRlZnM+PHBhdGggZD0iTTMzIDE1N1EzMyAyNTggMTA5IDM0OVQyODAgNDQxUTMzMSA0NDEgMzcwIDM5MlEzODYgNDIyIDQxNiA0MjJRNDI5IDQyMiA0MzkgNDE0VDQ0OSAzOTRRNDQ5IDM4MSA0MTIgMjM0VDM3NCA2OFEzNzQgNDMgMzgxIDM1VDQwMiAyNlE0MTEgMjcgNDIyIDM1UTQ0MyA1NSA0NjMgMTMxUTQ2OSAxNTEgNDczIDE1MlE0NzUgMTUzIDQ4MyAxNTNINDg3UTUwNiAxNTMgNTA2IDE0NFE1MDYgMTM4IDUwMSAxMTdUNDgxIDYzVDQ0OSAxM1E0MzYgMCA0MTcgLThRNDA5IC0xMCAzOTMgLTEwUTM1OSAtMTAgMzM2IDVUMzA2IDM2TDMwMCA1MVEyOTkgNTIgMjk2IDUwUTI5NCA0OCAyOTIgNDZRMjMzIC0xMCAxNzIgLTEwUTExNyAtMTAgNzUgMzBUMzMgMTU3Wk0zNTEgMzI4UTM1MSAzMzQgMzQ2IDM1MFQzMjMgMzg1VDI3NyA0MDVRMjQyIDQwNSAyMTAgMzc0VDE2MCAyOTNRMTMxIDIxNCAxMTkgMTI5UTExOSAxMjYgMTE5IDExOFQxMTggMTA2UTExOCA2MSAxMzYgNDRUMTc5IDI2UTIxNyAyNiAyNTQgNTlUMjk4IDExMFEzMDAgMTE0IDMyNSAyMTdUMzUxIDMyOFoiIGlkPSJNSlgtOS1URVgtSS0xRDQ0RSIvPjwvZGVmcz48ZyB0cmFuc2Zvcm09InNjYWxlKDEsLTEpIiBzdHJva2Utd2lkdGg9IjAiIGZpbGw9IiMwMDAwMDAiIHN0cm9rZT0iIzAwMDAwMCI+PGcgZGF0YS1tbWwtbm9kZT0ibWF0aCI+PGcgZGF0YS1tbWwtbm9kZT0ibWkiPjx1c2UgeGxpbms6aHJlZj0iI01KWC05LVRFWC1JLTFENDRFIiBkYXRhLWM9IjFENDRFIi8+PC9nPjwvZz48L2c+PC9zdmc+;" vertex="1" parent="1">
          <mxGeometry x="199" y="-74.11000000000001" width="10" height="8.89" as="geometry" />
        </mxCell>
        <mxCell id="1QXLRgYbMNCZf00Bbz8j-64" value="" style="endArrow=openThin;html=1;rounded=0;endFill=0;strokeWidth=3;" edge="1" parent="1">
          <mxGeometry width="50" height="50" relative="1" as="geometry">
            <mxPoint x="189.70999999999998" y="-50" as="sourcePoint" />
            <mxPoint x="190" y="-90" as="targetPoint" />
          </mxGeometry>
        </mxCell>
      </root>
    </mxGraphModel>
  </diagram>
</mxfile>
